<svg xmlns="http://www.w3.org/2000/svg" height="24" viewBox="0 -960 960 960" width="24"><path d="m608.413-290.565 61.5-61.022-146.326-146.326v-180.891h-87.174v216.133l172 172.106ZM480-71.869q-84.913 0-159.345-32.118t-129.491-87.177q-55.059-55.059-87.177-129.491Q71.869-395.087 71.869-480t32.118-159.345q32.118-74.432 87.177-129.491 55.059-55.059 129.491-87.177Q395.087-888.131 480-888.131t159.345 32.118q74.432 32.118 129.491 87.177 55.059 55.059 87.177 129.491Q888.131-564.913 888.131-480t-32.118 159.345q-32.118 74.432-87.177 129.491-55.059 55.059-129.491 87.177Q564.913-71.869 480-71.869ZM480-480Zm-.002 317.13q131.806 0 224.469-92.543Q797.13-347.957 797.13-480t-92.661-224.587q-92.66-92.543-224.467-92.543-131.806 0-224.469 92.543Q162.87-612.043 162.87-480t92.661 224.587q92.66 92.543 224.467 92.543Z"/></svg>