<svg xmlns="http://www.w3.org/2000/svg" height="24" viewBox="0 -960 960 960" width="24" fill="#767C88"><path d="M363.065-71.87 346.587-202.5q-11.087-4.282-21.033-10.326-9.945-6.043-19.511-12.848l-121.391 51.196L67.478-377.391l104.913-79.435q-.761-6.044-.761-11.587v-23.174q0-5.543.761-11.587L67.478-582.609l117.174-202.435 121.87 50.957q9.565-6.804 19.652-12.728 10.087-5.924 20.413-10.207l16.478-131.109h233.87l16.478 131.109q11.087 4.283 21.033 10.207 9.945 5.924 19.511 12.728l121.391-50.957 117.174 202.435-105.152 79.435q.761 6.044.761 11.587V-480q0 6.043-.12 11.587-.12 5.543-1.641 11.587l105.152 79.435-117.413 202.913-120.631-51.196q-9.565 6.805-19.652 12.848-10.087 6.044-20.413 10.326L596.935-71.87h-233.87ZM481.283-340q58 0 99-41t41-99q0-58-41-99t-99-41q-58.761 0-99.381 41-40.619 41-40.619 99t40.619 99q40.62 41 99.381 41Z"/></svg>